Coordinates
version=1
nRows=17
nColumns=36
inDegrees=yes

Units are S.I. units (second, meters, Newtons, ...)
If the header above contains a line with 'inDegrees', this indicates whether rotational values are in degrees (yes) or radians (no).

endheader
time	pelvis_tilt	pelvis_list	pelvis_rotation	pelvis_tx	pelvis_ty	pelvis_tz	hip_flexion_r	hip_adduction_r	hip_rotation_r	knee_angle_r	knee_angle_r_beta	ankle_angle_r	subtalar_angle_r	mtp_angle_r	hip_flexion_l	hip_adduction_l	hip_rotation_l	knee_angle_l	knee_angle_l_beta	ankle_angle_l	subtalar_angle_l	mtp_angle_l	lumbar_extension	lumbar_bending	lumbar_rotation	arm_flex_r	arm_add_r	arm_rot_r	elbow_flex_r	pro_sup_r	arm_flex_l	arm_add_l	arm_rot_l	elbow_flex_l	pro_sup_l
      0.00000000	     -1.30383292	     -2.24229603	     -5.60448603	      0.19067440	      0.85039959	      0.08303795	      6.27612960	      6.56790474	     -0.46812267	      9.59627729	      0.16748663	      6.13912036	      2.00467402	     -5.88322809	      5.08706783	     -0.65713210	      1.37624943	      6.38749259	      0.11148278	     11.41494135	      4.78773235	     -5.88322809	      0.10549390	      4.30608003	     -1.91751536	      2.46578133	     -8.87441351	     30.22781297	     24.71976228	     70.47734101	     -6.14294869	     -6.99429325	     15.27590923	     32.93245955	     70.01150698
      0.01666670	     -2.48511369	     -0.47296575	     -4.84097005	      0.19437058	      0.85042946	      0.08276617	      7.65120489	      4.99655937	      0.95738371	      9.24281180	      0.16131750	      9.80610305	      2.42700115	     -5.90714929	      6.43752333	      1.73360657	      3.23620943	      6.27091577	      0.10944813	     11.70766086	      6.42573162	     -5.90714929	      2.65971557	      2.61429427	     -1.96085245	      1.47390182	     -8.22012132	     30.23239564	     24.04573533	     70.82732930	     -5.94728440	     -7.21591248	     15.62898560	     32.72743560	     70.34397049
      0.03333330	     -4.06318718	      0.92753524	     -4.64128949	      0.19608307	      0.84658130	      0.08377698	      8.88374992	      3.68354517	     -0.04994113	      8.10110569	      0.14139097	     10.76115965	      4.57064934	     -6.54126288	      8.25441355	      3.08504806	      2.67118281	      6.41500407	      0.11196294	     11.41783974	      6.85461419	     -6.54126288	      5.39142627	      0.99529029	     -0.74008110	     -0.59282755	     -7.09093231	     21.35991752	     24.40785119	     82.08597769	     -5.05951439	     -8.06480423	     18.41618680	     31.16173066	     76.20572747
      0.05000000	     -3.97316192	      1.20330743	     -4.44224209	      0.19713050	      0.84644919	      0.08493241	      8.25115764	      3.48647149	      0.30190741	      7.32049119	      0.12776667	     11.03500373	      4.92127652	     -6.63367302	      7.81798335	      3.38166981	      3.08918014	      6.07134194	      0.10596491	     10.90115429	      6.63279802	     -6.63367302	      5.53847353	      0.61630991	     -0.99944357	     -0.84115316	     -6.96598627	     20.82938551	     24.74424144	     81.25903352	     -5.36410492	     -8.41618485	     18.30529767	     31.68345589	     75.38642362
      0.06666670	     -3.98304061	      1.18994883	     -4.31973624	      0.19725794	      0.84662023	      0.08456690	      7.90156793	      3.56547958	      0.71331689	      6.74339426	      0.11769443	     10.49158210	      5.42181289	     -6.95823492	      7.67353917	      3.30146054	      3.60428667	      5.88400683	      0.10269529	      9.77706307	      5.76139247	     -6.95823492	      5.59376056	      0.69813860	     -0.71733594	     -1.62889493	     -6.62531371	     16.25392243	     25.65029244	     88.00007462	     -5.32233210	     -8.61574942	     18.47777894	     32.38308537	     78.04069138
      0.08333330	     -3.59033554	      1.19293297	     -4.30044541	      0.19997395	      0.84838894	      0.08615786	      7.00534690	      3.59845205	      1.11003806	      6.32394708	      0.11037370	      9.46447509	      4.92721365	     -7.04369924	      7.08907628	      3.25495793	      3.90500567	      5.66933943	      0.09894864	      8.55280067	      5.01223637	     -7.04369924	      5.26069629	      0.66718214	     -0.77842503	     -1.85147171	     -6.67880791	     16.22791053	     26.15048320	     86.46117721	     -5.55998851	     -8.72912363	     18.08656831	     33.57985602	     76.48544986
      0.10000000	     -3.37915544	      1.13680234	     -4.26647501	      0.19957930	      0.84851853	      0.08692548	      6.51162577	      3.77011844	      1.66320350	      5.91584450	      0.10325096	      8.94599417	      4.25094434	     -7.24668395	      6.66365261	      3.17000013	      4.25210372	      5.26652988	      0.09191829	      8.08418984	      4.67993001	     -7.24668395	      5.04621279	      0.73380731	     -0.65775294	     -2.19415410	     -6.66245314	     16.66944073	     26.89645672	     79.28011302	     -5.46557951	     -8.92734056	     18.21490147	     34.80904944	     71.51253443
      0.11666670	     -2.92301974	      1.10444432	     -3.98192076	      0.20147211	      0.85109457	      0.08740389	      5.74440201	      3.83101848	      1.88487821	      5.50801689	      0.09613303	      8.36580283	      4.24576675	     -7.34998338	      5.99316094	      3.11884576	      4.76130359	      4.89751323	      0.08547773	      7.14834276	      4.00412185	     -7.34998338	      4.65986111	      0.76760243	     -1.23583915	     -1.77299107	     -6.67584727	     17.20344629	     26.36630743	     87.76508114	     -5.86883188	     -9.30792083	     17.52131392	     36.95320485	     76.74254327
      0.13333330	     -2.51209358	      1.12922637	     -3.93121312	      0.20145372	      0.85218757	      0.08859987	      5.11757367	      3.84206681	      2.07135067	      5.24380259	      0.09152162	      7.89400468	      3.97689185	     -7.37009471	      5.37979338	      3.15245061	      5.21797957	      4.42577756	      0.07724439	      6.97919485	      4.14566865	     -7.37009471	      4.27895386	      0.78799109	     -1.09511303	     -1.96134945	     -6.73605158	     17.35269544	     26.81501322	     86.04640627	     -5.72579459	     -9.64618476	     17.78315764	     38.76999072	     75.40935977
      0.15000000	     -2.23160033	      1.18290958	     -3.84028663	      0.20207629	      0.85191611	      0.08982732	      4.66162798	      3.84596495	      2.28980627	      4.71474935	      0.08228790	      7.42903686	      3.82436596	     -7.41401915	      4.89629583	      3.20023022	      5.53840072	      4.01058265	      0.06999787	      7.04587943	      4.29861373	     -7.41401915	      4.07866560	      0.71943642	     -1.29432614	     -1.74167700	     -7.05959435	     19.90765127	     26.75261726	     84.92707803	     -5.69196539	    -10.38641684	     18.73946006	     41.17445661	     74.59005476
      0.16666670	     -1.74659872	      1.22716659	     -3.73231859	      0.20168638	      0.85282397	      0.09128767	      3.99935493	      3.87117459	      2.47423314	      4.45317250	      0.07772252	      7.05974141	      3.44727290	     -7.42507887	      4.33972176	      3.18024130	      5.92071680	      3.88409696	      0.06779028	      6.71100464	      4.21674450	     -7.42507887	      3.52734040	      0.68087174	     -1.28572058	     -1.81364984	     -7.06221036	     19.72953729	     27.24341004	     83.39983666	     -5.53697591	    -10.88620482	     18.85655239	     43.58012519	     73.61095744
      0.18333330	     -1.55648938	      1.32208331	     -3.66072824	      0.20144384	      0.85443377	      0.09073509	      3.88330973	      3.81986979	      2.27333152	      4.54539204	      0.07933206	      7.07176193	      3.45771112	     -7.44135329	      4.08918128	      3.21901106	      6.12863881	      3.86420433	      0.06744309	      6.61678868	      4.54859221	     -7.44135329	      3.42282638	      0.60050642	     -1.62502243	     -1.37380638	     -7.11924381	     21.12267217	     26.72108033	     83.96466149	     -5.60586032	    -11.81398876	     19.86772457	     46.63740776	     74.40306824
      0.20000000	     -1.16132065	      1.36232052	     -3.45595827	      0.19961686	      0.85409811	      0.08927706	      3.47740419	      3.74822996	      2.23757804	      4.53783012	      0.07920008	      6.89443466	      3.15491516	     -7.44509943	      3.74858900	      3.33658544	      6.50228785	      3.86350782	      0.06743093	      6.09155252	      4.38702116	     -7.44509943	      2.87306380	      0.66107912	     -1.65535394	     -1.25278949	     -7.37774747	     21.26853108	     27.34786777	     83.89457387	     -5.13010220	    -12.23590776	     20.11096311	     48.98773512	     74.59189620
      0.21666670	     -0.92191224	      1.40551624	     -3.31494523	      0.20195495	      0.85432094	      0.09144539	      3.25027950	      3.72891323	      2.14876075	      4.59516912	      0.08020083	      6.69944852	      2.89730742	     -7.46720153	      3.47015397	      3.36698575	      6.82353058	      3.81958643	      0.06666436	      6.01841930	      4.58821463	     -7.46720153	      2.65781440	      0.66527151	     -2.29726819	     -0.77801671	     -7.51057716	     21.80321037	     27.48925378	     87.78197248	     -5.62696092	    -12.69907682	     18.90899995	     52.35929343	     80.31886861
      0.23333330	     -1.37891631	      1.47033007	     -3.32646678	      0.19969973	      0.85523269	      0.09208940	      3.98769503	      3.70874749	      1.89134485	      4.80195076	      0.08380985	      6.43976750	      2.74215012	     -7.46967453	      4.07238264	      3.39035699	      6.92368350	      3.81123989	      0.06651868	      5.92521774	      4.60790170	     -7.46967453	      3.38630248	      0.77374505	     -2.20307318	     -1.11518572	     -7.81850077	     21.67830625	     28.73158017	     86.49183985	     -5.30486415	    -12.81483100	     18.82270125	     53.94571513	     79.24525049
      0.25000000	     -0.35118725	      1.46999296	     -3.06319046	      0.20048648	      0.85920651	      0.09041026	      2.68398256	      3.62468297	      1.89338398	      4.25054938	      0.07418608	      5.44398452	      2.55380704	     -7.47509234	      2.90274171	      3.48741808	      7.74267480	      3.49498831	      0.06099905	      5.44230232	      4.96803921	     -7.47509234	      2.05589344	      0.75729975	     -2.17939389	     -0.64824834	     -7.91937637	     22.00165484	     28.85134214	     84.38138855	     -4.60039882	    -13.75660081	     20.40683451	     57.82520861	     77.94706440
      0.26666670	     -0.06120014	      1.49568288	     -2.76234135	      0.20139590	      0.86012147	      0.09141384	      2.21743334	      3.56221117	      1.52590265	      3.98572652	      0.06956405	      4.96661843	      2.77971738	     -7.47711724	      2.55753391	      3.54483784	      8.09794991	      3.48689093	      0.06085773	      5.04118299	      4.86734571	     -7.47711724	      1.81887652	      0.82339064	     -2.39850252	     -0.32127185	     -8.16457836	     22.78424907	     29.11584565	     84.27584027	     -4.19379655	    -14.65012634	     21.66544794	     61.32863785	     78.34769273
